<?xml version="1.0" encoding="UTF-8"?>
<svg id="svg66" width="256" height="256" version="1.1" viewBox="0 0 33.867 33.866" xml:space="preserve" xmlns="http://www.w3.org/2000/svg" xmlns:xlink="http://www.w3.org/1999/xlink">
    <defs id="defs14">
        
        
        
        
        
        
        <linearGradient id="a">
            <stop id="stop13" stop-color="#feff23" stop-opacity=".29568" offset="0"/>
            <stop id="stop14" stop-color="#feb240" stop-opacity=".07357" offset="1"/>
        </linearGradient>
        <linearGradient id="n" x1="22.886" x2="22.038" y1="21.888" y2="18.844" gradientTransform="matrix(.99914 0 0 .99914 -.70643 -1.2966)" gradientUnits="userSpaceOnUse" xlink:href="#a"/>
        <linearGradient id="h" x1="18.676" x2="18.817" y1="15.594" y2="19.099" gradientTransform="matrix(.99914 0 0 .99914 -.70643 -1.2966)" gradientUnits="userSpaceOnUse"><stop id="stop11" stop-color="#ffde8c" stop-opacity=".84853" offset="0"/><stop id="stop12" stop-color="#ffde8c" stop-opacity="0" offset="1"/></linearGradient>
        <linearGradient id="m" x1="19.067" x2="18.372" y1="10.252" y2="8.169" gradientTransform="matrix(.99914 0 0 .99914 -.70643 -1.2966)" gradientUnits="userSpaceOnUse"><stop id="stop9" stop-color="#ffde8c" offset="0"/><stop id="stop10" stop-color="#ffde8c" stop-opacity="0" offset="1"/></linearGradient>
        <linearGradient id="j" x1="15.578" x2="11.675" y1="12.948" y2="15.147" gradientTransform="matrix(.99914 0 0 .99914 -.70643 -1.2966)" gradientUnits="userSpaceOnUse"><stop id="stop7" stop-color="#ffe6a1" offset="0"/><stop id="stop8" stop-color="#ffe6a1" stop-opacity="0" offset="1"/></linearGradient>
        <linearGradient id="l" x1="18.389" x2="21.167" y1="13.957" y2="16.569" gradientTransform="matrix(.99914 0 0 .99914 -.70643 -1.2966)" gradientUnits="userSpaceOnUse"><stop id="stop5" stop-color="#ffe6a1" offset="0"/><stop id="stop6" stop-color="#ffe6a1" stop-opacity="0" offset="1"/></linearGradient>
        <linearGradient id="i" x1="22.936" x2="20.985" y1="14.105" y2="13.394" gradientTransform="matrix(.99914 0 0 .99914 -.70643 -1.2966)" gradientUnits="userSpaceOnUse"><stop id="stop3" stop-color="#fab861" offset="0"/><stop id="stop4" stop-color="#fab861" stop-opacity="0" offset="1"/></linearGradient>
        <linearGradient id="k" x1="14.767" x2="16.487" y1="15.23" y2="18.421" gradientTransform="matrix(.99914 0 0 .99914 -.70643 -1.2966)" gradientUnits="userSpaceOnUse"><stop id="stop1" stop-color="#fdd478" offset="0"/><stop id="stop2" stop-color="#fdd478" stop-opacity="0" offset="1"/></linearGradient>
        <linearGradient id="o" x1="16.055" x2="14.079" y1="13.798" y2="22.1" gradientTransform="matrix(.99914 0 0 .99914 -.70643 -1.2966)" gradientUnits="userSpaceOnUse" xlink:href="#a"/>
    <linearGradient id="linearGradient65" x1="22.17" x2="21.936" y1="2.8994" y2="26.473" gradientTransform="matrix(1.0101 0 0 1.0101 -.29065 -34.13)" gradientUnits="userSpaceOnUse"><stop id="stop65" stop-color="#ffe6a1" offset="0"/><stop id="stop66" stop-color="#ffa911" stop-opacity="0" offset="1"/></linearGradient><linearGradient id="linearGradient69" x1="23.223" x2="21.931" y1="11.406" y2="10.898" gradientUnits="userSpaceOnUse"><stop id="stop68" stop-color="#fd8d3f" stop-opacity=".86379" offset="0"/><stop id="stop69" stop-color="#fd8d3f" stop-opacity="0" offset="1"/></linearGradient></defs>
    
    <rect id="rect1" x="2.6592" y="2.6587" width="28.416" height="28.416" rx="6.5966" ry="6.5966" fill="#ffb47b" stroke="#f0b066" stroke-width=".026701"/><rect id="rect1-6" transform="scale(1,-1)" x="2.716" y="-31.123" width="28.443" height="28.443" rx="6.6028" ry="6.6028" fill="url(#linearGradient65)" stroke="#f0b066" stroke-width="0"/><ellipse id="path65" cx="22.903" cy="21.228" rx="6.922" ry="6.5935" fill="#f3a258" fill-opacity=".88877" stroke-width="0"/><ellipse id="path1" transform="scale(-1,1)" cx="-16.709" cy="17.577" rx="11.36" ry="10.421" fill="#21bbaf" stroke="#fff" stroke-opacity=".25" stroke-width=".053402"/><ellipse id="ellipse14" cx="16.702" cy="15.073" rx="7.8736" ry="7.7285" fill="#faae66" stroke-width="0"/>
    <path id="path14" d="M.271 1.568c.015.013.009.022-.01.031-.007-.008-.007-.019.01-.03zm0 0" fill="#f8f8f5"/>
    
    
    <ellipse id="ellipse16" cx="16.559" cy="12.21" rx="7.0386" ry="5.2128" fill="#ffc672" stroke-width="0"/>
    <path id="path17" d="m14.815 23.683c-0.42226-0.32977-0.8204-0.69171-1.2322-1.0368-0.43433-0.36274-0.87349-0.72147-1.3094-1.0834-0.05333-0.04567-0.10015-0.09844-0.13914-0.15684 5.4435 3.5702 13.033-0.07694 12.354-7.4762-0.0019-0.09383-0.02957-0.11571-0.02984-0.20955 0.07802 0.13593 0.21719 0.22901 0.31853 0.32875 0.49064 0.49583 1.7653 1.6662 3.2605 2.7571 0.04292 0.40455 0.0199 0.80859 0.02087 1.2176 0.0024 1.2421-0.26882 2.4831-0.74382 3.6309-0.38607 0.94105-0.92496 1.7799-1.5813 2.5481-1.5999 1.9667-2.979 2.4833-5.2177 3.2056 0 0-3.7924-2.3156-5.7009-3.7252z" fill="#5c9991"/>
    <path id="path18" d="m9.1649 12.898c0.048258-0.39733 0.10215-0.79386 0.14397-1.1912 0.086061-0.82603 0.28955-1.6159 0.69171-2.3478 0.0185-0.034584 0.02977-0.074799 0.04343-0.12467 0.17614-0.24773 0.33942-0.49385 0.53085-0.71504 0.72227-0.83247 1.6593-1.34 2.6679-1.7349 0.68617-0.26769 1.4016-0.45317 2.1314-0.55256 0.7279-0.10054 1.4582-0.099735 2.1893-0.048258 0.79868 0.056302 1.5797 0.20671 2.3301 0.48983 0.63782 0.24129 1.2612 0.51396 1.8097 0.92979 0.0563 0.041823 0.1126 0.082844 0.17695 0.14236-0.012055 0.17936-0.11662 0.24451-0.27105 0.25577-0.17212-0.11582-0.33218-0.23486-0.5043-0.33057-0.62919-0.35466-1.3-0.62971-1.9971-0.81879-0.98126-0.26462-1.9754-0.33781-2.988-0.28231-0.90852 0.048243-1.804 0.23765-2.6542 0.56141-0.90807 0.34505-1.7446 0.80753-2.4145 1.5226-0.18982 0.20349-0.3161 0.4665-0.48018 0.7078-0.1874 0.34746-0.2791 0.7078-0.25336 1.1075 8e-3 0.06756 0.01929 0.12145 0.02735 0.17695 0.10939 0.77214 0.47615 1.4156 1.0014 1.9915 0.09571 0.09652 0.18821 0.18258 0.28312 0.27829 0.05148 0.05228 0.10054 0.09571 0.15523 0.14799 0.13271 0.10697 0.25899 0.20671 0.38848 0.30242 0.64586 0.48018 1.385 0.76088 2.1499 1.0118 0.27829 0.06193 0.54854 0.11582 0.83086 0.17293 0.10536 0.01126 0.19947 0.02011 0.30323 0.03379 0.07562 0.01126 0.13914 0.01769 0.21234 0.03217 0.0748 0.01126 0.14156 0.01367 0.21958 0.0177 0.05388 0.0023 0.09652 0.0032 0.148 0.01288 0.15604 0.01044 0.30323 0.01288 0.46248 0.01689 0.04262 0 0.0748-0.0032 0.12065-0.0016 0.32092-0.0041 0.62737-0.01126 0.94748-0.01931l0.42709-0.06273c0.63541-0.08526 1.2209-0.30001 1.8049-0.51717 0.18741-0.06918 0.35953-0.18178 0.54854-0.27669 0.07239-0.04021 0.13673-0.07962 0.20993-0.12065 0.06677-0.03379 0.12547-0.06113 0.17856-0.09652 0.09652-0.06595 0.18821-0.13673 0.29116-0.20751 0.09089-0.06033 0.17212-0.11823 0.26382-0.17936 0.44963-0.28957 0.82776-0.67732 1.1059-1.1341 0.09813-0.15523 0.17052-0.32736 0.26382-0.49868 0.25497-0.5035 0.38768-1.0263 0.35953-1.5845-0.0081-0.14156-0.0076-0.31074-0.01243-0.46035 0.05308-0.053889 0.07474-0.064145 0.12461-0.10677 0.11984-0.10456 0.22083-0.22505 0.34148-0.32801 0.01929 0.055493 0.06995 0.11977 0.09006 0.19698 0.04986 0.15041 0.10456 0.27588 0.14236 0.40537 0.3177 1.0834 0.4464 2.199 0.56061 3.3274-0.06354 0.17695-0.12065 0.34344-0.19062 0.51074-0.06903-7e-3 -0.13703-0.02181-0.20269-0.04423 0.01045-0.07239 0.02412-0.1311 0.02895-0.19143 0.0378-0.596-0.05952-1.1823-0.13593-1.7695-0.04102-0.31529-0.11582-0.62576-0.17695-0.93864-0.0161-0.07802-0.03861-0.15443-0.06756-0.27105-0.12869 0.46168-0.24371 0.87429-0.36596 1.2949-0.07399 0.13271-0.13432 0.26221-0.20912 0.38286-0.14911 0.23857-0.30277 0.47428-0.46087 0.70699-0.3177 0.28955-0.62576 0.57348-0.94426 0.86142-0.05308 0.03298-0.09652 0.06273-0.15041 0.09491-0.12628 0.0925-0.23486 0.19625-0.36194 0.26623-0.71423 0.39411-1.4614 0.70619-2.2521 0.9129-0.18499 0.04827-0.36998 0.10215-0.56785 0.15443-0.0748 0.0064-0.13673 0.01206-0.20832 0.01447-0.03379 0.0055-0.05712 0.01448-0.09089 0.02172-0.03459 0.0064-0.05871 0.01447-0.0941 0.02171-0.03378 0-0.0563 0-0.08848-0.0064-0.06354 0.0016-0.11904 0.0081-0.1874 0.0161-0.0748 0.0032-0.13673 0.0073-0.21073 0.0081-0.06596 0.0048-0.11984 0.01288-0.18741 0.02091-0.1681 8.04e-4 -0.32173 0.0023-0.48902 0.0023-0.43192-0.03137-0.85016-0.06111-1.2797-0.0933-0.10697-0.0185-0.20108-0.03138-0.29518-0.04986-0.319-0.06465-0.63752-0.13167-0.95553-0.20105-0.13513-0.04343-0.2606-0.08123-0.39251-0.12708-0.47052-0.22521-0.93461-0.43996-1.3955-0.66114-0.15363-0.074-0.29921-0.16328-0.45203-0.25578-0.26945-0.24773-0.53326-0.485-0.80029-0.73193-0.18499-0.26301-0.38527-0.50591-0.54693-0.77214-0.15443-0.25577-0.27025-0.53487-0.40457-0.81558l-0.22842-0.94506c-0.078849 0.27645-0.13957 0.55776-0.18178 0.84212-0.05067 0.32173-0.088473 0.64667-0.13352 0.98448-0.013674 0.28955-0.024936 0.56382-0.048258 0.8389-0.12595-0.059584-0.25091-0.12126-0.37481-0.18499z" fill="#fdfaf5"/>
    
    <path id="path20" d="m21.601 8.0077c0.14719-0.01769 0.25175-0.082845 0.27186-0.25497 0.0378-0.024129 0.08284-0.027346 0.111-0.050673 0.26703-0.22199 0.53567-0.44318 0.79627-0.67321 0.28955-0.25497 0.57106-0.51878 0.85257-0.77616 0.18901 0.20751 0.37642 0.4102 0.55819 0.6161 0.03378 0.037803 0.04343 0.096518 0.05388 0.15845-0.02816 0.029759-0.04746 0.045846-0.06354 0.064346-0.24129 0.27186-0.46891 0.55578-0.72388 0.81236-0.24934 0.25095-0.52924 0.47133-0.79144 0.71021-0.6145 0.559-1.2226 1.1244-1.8395 1.681-0.32655 0.29518-0.66517 0.5775-1.0054 0.86786-0.01448 0.0089-0.02011 0.01689-0.02412 0.02735l-8e-3 0.0041c-0.04986 0.04262-0.09169 0.08044-0.1303 0.11984-0.10617 0.11019-0.21234 0.2228-0.32977 0.33379-0.06515-0.01528-0.11823-0.03056-0.17132-0.04505-0.1303-0.0362-0.25899-0.08686-0.3917-0.10537-0.2791-0.04021-0.56061-0.06193-0.84051-0.09652-0.05952-0.0064-0.11743-0.03378-0.17936-0.05227 0.02816-0.06756 0.04826-0.1126 0.0748-0.15925l0.03138-0.0016c0.02412-0.02011 0.03861-0.03861 0.06033-0.05872l0.03217-0.0016c0.05308-0.0193 0.09973-0.03056 0.13432-0.0579 0.12789-0.09973 0.25095-0.2043 0.38205-0.31449 0.074-0.05952 0.14397-0.10858 0.20992-0.16167 0.31127-0.24934 0.62415-0.49707 0.9314-0.75203 0.20349-0.16649 0.39572-0.34746 0.5976-0.51557 0.32173-0.26703 0.64667-0.52924 0.97966-0.79788 0.02251-0.041819 0.03539-0.078018 0.06033-0.11582 0.18499-0.086061 0.32736-0.19706 0.36114-0.40377z" fill="#ffd761" stroke="#fff" stroke-opacity=".29" stroke-width=".039688"/>
    <path id="path21" d="m19.843 11.16c0.33379-0.28714 0.65587-0.60666 0.98242-0.90104 2.1451-1.9381 3.2713-3.0549 3.3713-3.1672 0.01853-0.020648 0.03993-0.038526 0.06355-0.053085 0.14197 0.16542 0.27877 0.33521 0.4102 0.50913 0.07802 0.10295 0.09088 0.2043-0.01126 0.31127-0.14639 0.15282-0.27668 0.32092-0.42146 0.47454-0.07883 0.083649-0.18017 0.14478-0.2606 0.22762-0.16086 0.16167-0.31368 0.32977-0.46972 0.50672-0.12065 0.11421-0.2429 0.21717-0.36194 0.32173-0.05067 0.042627-0.09652 0.090884-0.15926 0.14478-0.24371 0.20188-0.47133 0.39411-0.7078 0.59117-0.12869 0.11502-0.2429 0.23084-0.36757 0.33459-0.3542 0.29394-0.71025 0.58565-1.0681 0.87509-0.10778 0.08847-0.21153 0.19706-0.33701 0.24934-0.20188 0.08203-0.41824 0.14478-0.6346 0.17695-0.08848 0.01206-0.19223-0.08044-0.28955-0.12386 0.04021-0.08687 0.07802-0.17454 0.12065-0.25979 0.03298-0.06434 0.07399-0.12548 0.111-0.18821l0.0064-0.0032c0.01528-0.0089 0.02091-0.01689 0.02412-0.02654z" fill="#fdb03f"/>
    <path id="path22" d="m10.166 30.049a0.24152 0.24152 0 0 1 0.10701 0.05105 0.25035 0.25035 0 0 1-0.108-0.05105z" fill="#e39951"/>
    <path id="path23" d="m22.025 30.581c-0.0019-0.0069 0.0039-0.01277 0.01669-0.01964 0.0059 0.0098 0 0.01669-0.01669 0.01964z" fill="#7dbaae"/>
    <path id="path24" d="m21.608 16.283c-0.09732 0.05227-0.19706 0.10054-0.29277 0.15604-0.6338 0.37159-1.3054 0.66356-1.9987 0.8944-0.39572 0.1311-0.81557 0.20188-1.2306 0.2622a10.319 10.319 0 0 1-1.3287 0.1126c-0.41824 0.0056-0.8397-0.03217-1.2563-0.08044-0.4665-0.05388-0.93622-0.10858-1.3915-0.21877-0.40135-0.09652-0.81558-0.21556-1.1679-0.42066-0.72871-0.42307-1.488-0.8019-2.1186-1.3866-0.3539-0.32896-0.66517-0.67884-0.90646-1.0939-0.18258-0.31609-0.3539-0.63862-0.54935-0.94587-0.056301-0.08848-0.17936-0.13432-0.28151-0.20108 0.015279-0.14799 0.040215-0.29518 0.072387-0.45202 0.12869 0.05067 0.24934 0.1118 0.3909 0.18016 0.035391 0.08446 0.048258 0.16086 0.054686 0.24532a0.57508 0.57508 0 0 0 0.00646 0.13914c0.072387 0.39974 0.33701 0.70297 0.52522 1.0553 0.07239 0.10134 0.13432 0.20269 0.21716 0.28151 0.33379 0.31127 0.65954 0.633 1.0158 0.91692 0.32172 0.25738 0.67321 0.48259 1.0263 0.69734 0.20993 0.12789 0.44881 0.20912 0.67562 0.30966 0.61128 0.27347 1.262 0.40055 1.9175 0.49868 0.38446 0.05791 0.77134 0.10456 1.1582 0.12628 0.44318 0.02573 0.89198 0.0579 1.3311 0.0161 0.52522-0.04826 1.0456-0.14638 1.562-0.28392 0.66195-0.17695 1.2869-0.4295 1.8845-0.75123 0.33781-0.18258 0.65793-0.40055 0.96759-0.62737 0.27105-0.19625 0.5027-0.43433 0.64345-0.75364 0.03217-0.0748 0.14478-0.13673 0.23406-0.16086 0.22199-0.06033 0.42146-0.14397 0.56382-0.34666 0.05228-0.07078 0.10215-0.14317 0.1488-0.21797 0.05148-0.08606 0.10939-0.15764 0.1496-0.23727 0.08606-0.16891 0.16247-0.34344 0.2429-0.51557 0.06435 0.01046 0.12789 0.02011 0.20269 0.04102a0.39411 0.39411 0 0 1-0.01609 0.12548c-0.03378 0.07318-0.06434 0.13673-0.10456 0.20349a27.548 27.548 0 0 0-0.49707 0.62334c-0.15443 0.19866-0.28151 0.42468-0.46248 0.59519-0.39009 0.36757-0.80592 0.70699-1.2113 1.0577z" fill="url(#h)"/>
    <path id="path25" d="m20.829 21.715a0.43916 0.43916 0 0 1 0.10858-0.07962 0.42146 0.42146 0 0 1-0.10858 0.07962z" fill="#e6b061"/>
    <path id="path26" d="m13.091 22.013a0.11421 0.11421 0 0 1 0.06434 0.0193 0.11421 0.11421 0 0 1-0.06434-0.0193z" fill="#e8b363"/>
    <path id="path27" d="m20.095 22.077c0.0097-0.0161 0.02735-0.02976 0.05469-0.04262a0.10778 0.10778 0 0 1-0.05469 0.04262z" fill="#e6b061"/>
    <path id="path28" d="m17.829 11.19-0.06756 0.15845c0.06193 0.0185 0.11984 0.04585 0.17936 0.05309 0.2799 0.03378 0.56141 0.0555 0.84051 0.09571 0.13271 0.0185 0.2614 0.06917 0.3917 0.10456 0.05308 0.0161 0.10617 0.03056 0.17051 0.05871 0.07239 0.1673 0.13352 0.32172 0.18338 0.47535-0.44237-0.2421-0.90325-0.35149-1.3963-0.30242-0.05871 0.0055-0.1126 0.04827-0.16891 0.07319 0.02574 0.04987 0.04746 0.10376 0.08044 0.1488a0.22762 0.22762 0 0 0 0.08526 0.06113c0.35068 0.17132 0.70056 0.34264 1.0528 0.51074 0.33781 0.16247 0.67321 0.3346 1.0199 0.47615 0.26462 0.10778 0.54532 0.17534 0.81799 0.2606-0.09331 0.06837-0.1858 0.13915-0.28151 0.2051a0.73112 0.73112 0 0 1-0.18499 0.08766c-0.29519-0.13915-0.57992-0.2598-0.85258-0.40538-0.56704-0.30081-1.1276-0.6161-1.6923-0.92255-0.25738-0.13995-0.51637-0.2791-0.78018-0.40537-0.16167-0.07722-0.22521-0.03941-0.28231 0.13673-0.0185 0.0563-0.04021 0.12145-0.02816 0.17695 0.04262 0.21154 0.08284 0.42629 0.15282 0.62978 0.1295 0.38285 0.28473 0.75766 0.41985 1.1397 0.07239 0.2043 0.13513 0.41503 0.06595 0.63621-0.30725 0.0081-0.61369 0.01529-0.93461 0.0073a0.32012 0.32012 0 0 1 8e-3 -0.11824c0.04665-0.21475-0.09169-0.58956-0.2614-0.63138a0.92496 0.92496 0 0 0-0.75043 0.12869c-0.20349 0.13432-0.17051 0.34827-0.16891 0.54935a2.1491 2.1491 0 0 1-0.29358-0.04021c0.04585-0.35068 0.23727-0.56463 0.56061-0.67964 0.13834-0.04987 0.27025-0.13673 0.38527-0.23003 0.10778-0.08848 0.1126-0.29599 0.03779-0.39009-0.09571-0.11743-0.17212-0.12628-0.34988-0.0362-0.0362 0.0185-0.06998 0.04343-0.10698 0.0579-0.03538 0.01367-0.0748 0.0185-0.1118 0.02654-0.0041-0.04102-0.01045-0.08203-0.01045-0.12386 0-0.15282 0.04102-0.31931-0.0055-0.45685a0.49867 0.49867 0 0 1 0.04505-0.46007c0.04021-0.06434 0.08847-0.12306 0.12306-0.18982 0.04423-0.08526 0.01609-0.14478-0.08526-0.13191a3.9556 3.9556 0 0 0-0.43192 0.07562c-0.30484 0.07159-0.60565 0.20349-0.91209 0.21556a6.3983 6.3983 0 0 0-1.418 0.22682c-0.43031 0.11582-0.8566 0.24129-1.2467 0.46409-0.0925-0.08687-0.18499-0.17293-0.26944-0.27347 0.12869-0.07561 0.24371-0.15764 0.37079-0.19464 0.59519-0.17293 1.1968-0.33057 1.7936-0.5027a4.9128 4.9128 0 0 0 0.65552-0.23969c0.09009-0.04021 0.21877-0.14236 0.21636-0.21314-0.0048-0.14316-0.16655-0.15282-0.28398-0.1689a27.065 27.065 0 0 0-0.81073-0.09574c-0.48098-0.05148-0.96276-0.10295-1.4445-0.1496-0.57106-0.0563-1.1043-0.2051-1.5362-0.61289a1.858 1.858 0 0 1 0.26784-1.0939c0.15926-0.016086 0.29518-0.025734 0.43111-0.024129a19.82 19.82 0 0 1-0.37401 0.66436 0.3732 0.3732 0 0 0-0.0563 0.06837c-0.04987 0.20832 0.01045 0.28794 0.20912 0.29518 0.27829 0.01046 0.48259-0.12306 0.64908-0.33299 0.13754-0.17454 0.28956-0.3547 0.5212-0.36275 0.42307-0.013674 0.79627 0.14397 1.0255 0.50672 0.15925 0.25256 0.34264 0.41824 0.63863 0.45444 0.06596 8e-3 0.12949 0.02976 0.19464 0.03217 0.16891 0.0057 0.34183 0.02172 0.50913 0 0.14076-0.01931 0.17373-0.111 0.08445-0.21314a1.4413 1.4413 0 0 0-0.69091-0.45606 6.8672 6.8672 0 0 1-0.38768-0.31368c0.02895-0.19143 0.13673-0.10456 0.20751-0.061124 0.26301 0.16086 0.52039 0.32977 0.77858 0.49707 0.36033 0.23164 0.72951 0.33781 1.1461 0.13673 0.14156-0.06756 0.30644-0.10697 0.46891-0.02412 0.08044 0.04021 0.16328 0.08848 0.24934 0.10215 0.24853 0.04021 0.41261-0.14558 0.41583-0.46811 0.01609-0.11743 0.03056-0.22199 0.04827-0.32575 0.08606-0.50672 0.16891-1.0134 0.2606-1.5177 0.02896-0.15604 0.07883-0.30886 0.12869-0.46489 0.02412-0.019303 0.03941-0.038607 0.06677-0.057911 0.16488-0.00966 0.3169-0.0185 0.47133-0.0185a0.19867 0.19867 0 0 0 0.07561 0.017695c0.13673 0.019303 0.2606 0.038608 0.38848 0.06515 0.02172 0.00321 0.04021 0 0.06837-0.00321 0.03217 0 0.0547 0.00161 0.07962 0.012065 0.02412 0.020107 0.04423 0.02976 0.07802 0.041824 0.07319 0.00402 0.13352 0.00804 0.19545 0.018499a0.21877 0.21877 0 0 0 0.07479 0.020107c0.09491 0.012065 0.17695 0.021717 0.26221 0.041823a0.20993 0.20993 0 0 0 0.0748 0.045846c0.14638 0.040216 0.28151 0.080432 0.41422 0.13191-0.1126 0.10134-0.21234 0.22521-0.34022 0.27588a2.4998 2.4998 0 0 0-0.89681 0.61449c-0.22682 0.24049-0.40457 0.53085-0.58876 0.80753-0.08044 0.12065-0.13673 0.2614-0.18097 0.39974-0.04505 0.14236 0.06756 0.2799 0.18499 0.23486a1.3529 1.3529 0 0 0 0.57106-0.41422c0.13673-0.1673 0.27668-0.3362 0.43916-0.47615 0.36436-0.31368 0.73997-0.61369 1.1172-0.91209 0.09089-0.071589 0.20349-0.11582 0.3177-0.17293 0.07641 0.020112 0.13995 0.040215 0.2413 0.073194-0.28312 0.24692-0.52844 0.45846-0.77134 0.6708-0.41422 0.36435-0.83488 0.72227-1.2403 1.0955-0.36194 0.33299-0.70458 0.68447-1.0609 1.0231-0.08044 0.07802-0.12065 0.17775-0.06434 0.25577 0.04021 0.05469 0.16649 0.0933 0.23406 0.07239 0.19706-0.05712 0.38285-0.1496 0.57348-0.22762m-1.4301 2.1097c0.07561 0.2992 0.14478 0.60163 0.31207 0.87751a0.39974 0.39974 0 0 0 0.07641-0.2059c-8.05e-4 -0.17615 0.0041-0.35712-0.03217-0.52844-0.08768-0.41824-0.19545-0.83246-0.30001-1.2467-0.01126-0.04585-0.0555-0.08203-0.08526-0.12386l-0.04262 0.01126c-0.0081 0.0563-0.02816 0.1118-0.02413 0.16649 0.02815 0.34103 0.06112 0.68206 0.09652 1.0496m-0.28321-2.1652c-0.09491 0.03539-0.18821 0.07641-0.28473 0.10456-0.09169 0.02816-0.10134 0.08284-0.05469 0.14799 0.09008 0.12708 0.18338 0.25336 0.28794 0.36838 0.02896 0.03217 0.10939 0.04827 0.15041 0.03217 0.10617-0.04183 0.20671-0.10215 0.30403-0.16488a0.1311 0.1311 0 0 0 0.04827-0.10054c-0.01284-0.15683-0.2678-0.38606-0.45118-0.38767m1.7486-2.4797c0.10376-0.052284 0.20912-0.10134 0.30886-0.16086 0.03378-0.019305 0.07962-0.075606 0.07239-0.099735a0.16569 0.16569 0 0 0-0.10216-0.094104c-0.12145-0.032172-0.24692-0.067563-0.36998-0.065948-0.11904 0.00161-0.25256 0.039407-0.29036 0.17695-0.0177 0.063547-0.0023 0.18821 0.03217 0.20269 0.0933 0.040215 0.2059 0.034584 0.31046 0.046653 0.0041 0 0.0097-0.00242 0.03861-0.00565z" fill="#fdd178"/>
    <path id="path29" d="m23.324 14.457c-0.13432 0.19706-0.33379 0.28071-0.55498 0.34103-0.08928 0.02412-0.20269 0.08606-0.23566 0.16086-0.13995 0.31931-0.3724 0.55739-0.64265 0.75444a8.5981 8.5981 0 0 1-0.96759 0.62656c-0.5968 0.32173-1.2226 0.57428-1.8845 0.75123a9.4748 9.4748 0 0 1-1.562 0.28473c-0.43916 0.04021-0.88796 0.0089-1.3303-0.01689a12.737 12.737 0 0 1-1.159-0.12628c-0.65552-0.098126-1.3062-0.22521-1.9175-0.49868-0.22682-0.10054-0.4657-0.18178-0.67562-0.30966-0.3539-0.21475-0.70377-0.43996-1.0271-0.69734-0.3555-0.28392-0.68125-0.60565-1.0142-0.91692a1.2596 1.2596 0 0 1-0.20591-0.28151c0.03701-0.01288 0.06434-0.0089 0.08606-0.0185 0.56945-0.23727 1.1775-0.39572 1.6545-0.81879 0.1488 0.08284 0.29438 0.17212 0.448 0.24612 0.46087 0.22119 0.92496 0.43594 1.3939 0.67241-0.06756 0.1488-0.18017 0.19384-0.32253 0.15765a4.4503 4.4503 0 0 1-0.33298-0.09652c-0.20108-0.06756-0.3539 0.0055-0.48259 0.15523-0.09331 0.10697-0.10778 0.21958-0.02654 0.34424 0.10617 0.16489 0.2622 0.25899 0.44961 0.32816 0.39411 0.18178 0.77053 0.37642 1.163 0.53085 0.86062 0.33862 1.7566 0.5043 2.684 0.47213 0.0378-0.0016 0.0748-0.02011 0.12467-0.03056 0.33862-0.06112 0.66597-0.12226 1.007-0.18258 0.23486-0.05871 0.46248-0.10376 0.67723-0.18258 0.15443-0.0563 0.2043-0.18338 0.15362-0.3169a1.118 1.118 0 0 0-0.15604-0.28956c-0.14076-0.18177-0.29518-0.3539-0.44398-0.52924 0.18499-0.05148 0.36918-0.10456 0.55498-0.15362a9.7515 9.7515 0 0 0 2.2513-0.9129c0.12708-0.06997 0.23566-0.17373 0.36194-0.25416 0.04262 0.06677 0.06193 0.14076 0.11019 0.18017 0.10215 0.08123 0.21556 0.15041 0.32977 0.21556 0.30644 0.17293 0.62012 0.33299 0.92335 0.51154 0.22521 0.13271 0.23566 0.13915 0.42629-0.02977 0.03779-0.03378 0.09491-0.04745 0.14236-0.06996m-2.2416 0.45846c-0.04343-0.04262-0.08044-0.10134-0.13191-0.12386-0.05952-0.02654-0.13352-0.02091-0.20108-0.02815 0.02735 0.0563 0.04102 0.12708 0.08365 0.1681 0.10778 0.10456 0.23325 0.19384 0.34344 0.29679 0.09973 0.09169 0.08365 0.19304-0.01528 0.27266-0.05228 0.04183-0.12628 0.0563-0.18901 0.08687-0.06354 0.03056-0.12467 0.06596-0.1858 0.09974l0.0041 0.06033c0.09169 0.02654 0.2043 0.09893 0.27105 0.06837 0.13593-0.06033 0.24692-0.17534 0.36516-0.27186 0.01126-8e-3 0.0016-0.03941 0.0048-0.05871 0.04987-0.28151-0.08044-0.45524-0.34907-0.57026z" fill="#ffe6a1"/>
    <path id="path30" d="m11.017 9.3268a30.403 30.403 0 0 1-0.42307 0.028953c0.14076-0.23647 0.26703-0.49868 0.45685-0.70217 0.66999-0.71504 1.5065-1.1775 2.4145-1.5226a8.7646 8.7646 0 0 1 2.6542-0.56141c1.0126-0.055498 2.0076 0.017695 2.988 0.28151 0.70056 0.18901 1.3649 0.4657 1.9971 0.8196 0.17132 0.096518 0.33218 0.21475 0.50431 0.32977-0.02654 0.21395-0.16891 0.32575-0.36436 0.4102-0.0748-0.045846-0.12226-0.10295-0.18338-0.13512-0.36838-0.19223-0.7279-0.40779-1.1124-0.56141-0.95231-0.37803-1.9561-0.51557-2.9736-0.55015-0.3346-0.011261-0.66999 0.00563-1.0038 0.027346-0.32253 0.020912-0.64747 0.04665-0.96518 0.10376-0.88314 0.16086-1.7285 0.43996-2.5207 0.87027-0.55658 0.30242-1.0609 0.6708-1.4687 1.1614z" fill="#fab866"/>
    <path id="path31" d="m19.537 12.136c-0.06033-0.15362-0.12065-0.30805-0.18178-0.47535a7.8517 7.8517 0 0 1 0.31851-0.34666c0.03861-0.04021 0.08044-0.07722 0.1303-0.12065-0.02815 0.05871-0.06918 0.11984-0.10215 0.18499-0.04262 0.08446-0.08044 0.17212-0.12065 0.25899 0.09732 0.04423 0.20108 0.13593 0.28955 0.12306 0.21716-0.03138 0.43272-0.0941 0.63541-0.17695 0.12467-0.05148 0.22842-0.16086 0.3362-0.24934a109.38 109.38 0 0 0 1.0681-0.87429c0.12467-0.10456 0.23808-0.21958 0.36677-0.32333 0.02735 0.08445 0.03298 0.1681 0.06677 0.23808 0.10054 0.20832 0.25416 0.39492 0.24773 0.64426-0.0041 0.13914-0.07641 0.21797-0.21073 0.23084-0.16649 0.0161-0.33379 0.0193-0.50028 0.03298-0.0941 8e-3 -0.1874 0.02574-0.28071 0.03941l0.0041 0.05067c0.08365 0 0.1673-0.0032 0.25095 8.04e-4 0.15684 8e-3 0.3161 0.0041 0.4673 0.03539 0.11582 0.02412 0.22038 0.09652 0.32977 0.14719-0.08445 0.16488-0.15684 0.33701-0.25497 0.49304-0.28392 0.45363-0.64345 0.8381-1.1116 1.1236a8.8201 8.8201 0 0 1-1.7477-1.0368z" fill="url(#i)"/>
    <path id="path32" d="m10.317 10.469c0.43272 0.39492 0.96518 0.54372 1.5362 0.60002 0.48259 0.04665 0.96437 0.09813 1.4454 0.1496 0.27025 0.02895 0.5413 0.05871 0.81075 0.09571 0.11823 0.0161 0.2791 0.02573 0.28392 0.16891 0.0023 0.07077-0.12628 0.17212-0.21716 0.21314a4.9128 4.9128 0 0 1-0.65552 0.23888c-0.596 0.17373-1.1968 0.32977-1.7928 0.5035-0.12708 0.03701-0.2421 0.11904-0.37401 0.18499-0.53326-0.56141-0.90002-1.2057-1.0094-1.9786-8e-3 -0.0547-0.0193-0.10858-0.02735-0.17614zm3.9974 3.9017c-0.75686-0.24371-1.496-0.52441-2.1419-1.0046a4.9473 4.9473 0 0 1-0.37562-0.30323c0.08203-0.0177 0.16488-0.03056 0.24773-0.03779 0.13754-0.01126 0.28392 0.0055 0.41181-0.03539 0.62173-0.19866 1.2378-0.41342 1.8556-0.62254 0.1874-0.06273 0.3724-0.13834 0.56302-0.18338 0.13995-0.03217 0.3177-0.07479 0.40859 0.06595 0.05952 0.09169 0.08365 0.2606 0.03861 0.3547-0.16649 0.35068-0.36355 0.68125-0.64184 0.96678-0.20671 0.21314-0.4102 0.45846-0.36677 0.79949z" fill="url(#j)"/>
    <path id="path33" d="m16.973 16.471c-0.03701 0.01044-0.07399 0.02896-0.1126 0.03056a6.642 6.642 0 0 1-2.6832-0.47213c-0.39251-0.15443-0.76973-0.34907-1.1646-0.54211a1.0215 1.0215 0 0 1-0.03861-0.1488c0.09491 8e-3 0.17132 0.0041 0.24371 0.02172 0.11904 0.02895 0.21958 0.0177 0.2984-0.08606 0.04986-0.06434 0.1118-0.11984 0.15443-0.18741a0.59841 0.59841 0 0 1 0.35149-0.27347c0.04183-0.01126 0.07479-0.05388 0.1118-0.08203 0.31449 0.06515 0.62978 0.1311 0.94507 0.19545 0.0933 0.01929 0.18821 0.03217 0.29357 0.06033-0.09169 0.10215-0.19304 0.19142-0.29438 0.28151-0.1303 0.11582-0.12387 0.26542 0.06837 0.36114 0.12306 0.06033 0.26703 0.09008 0.40538 0.10617 0.22199 0.02654 0.4472 0.03217 0.6716 0.04262 0.17856 0.0089 0.35712 0.01528 0.54774 0.02251 0.16488 0.03861 0.12065 0.17132 0.13995 0.27105 0.02412 0.13271 0.04182 0.26623 0.06193 0.39894z" fill="url(#k)"/>
    <path id="path34" d="m23.875 13.467c-0.08203 0.18499-0.15845 0.35873-0.24451 0.52843-0.04021 0.08044-0.09813 0.15121-0.16086 0.23808-0.25336 0.20751-0.48983 0.09732-0.71906-0.0056-0.35953-0.16006-0.71182-0.33781-1.0713-0.49546-0.09652-0.04262-0.13352-0.09732-0.12708-0.19464 0.30886-0.28392 0.61691-0.56785 0.93622-0.84292 0.01528 0.29357 0.06033 0.37562 0.28312 0.4287 0.20108 0.04827 0.40537 0.08365 0.61048 0.10858 0.17373 0.02172 0.2992-0.10456 0.30886-0.2791 0.0177-0.32736-0.09813-0.62736-0.19625-0.92979a0.80431 0.80431 0 0 0-0.32977-0.43996l0.35792-1.2877c0.02896 0.11662 0.05148 0.19304 0.06677 0.27105 0.06113 0.31288 0.13673 0.62334 0.17775 0.93863 0.07641 0.58715 0.17293 1.1735 0.13593 1.7695-0.0041 0.06033-0.0185 0.11984-0.02896 0.19143z" fill="#fab863"/>
    <path id="path35" d="m14.323 14.378c-0.05147-0.34827 0.15121-0.59358 0.35792-0.80673 0.27829-0.28553 0.47535-0.6161 0.64184-0.96678 0.04505-0.0941 0.02091-0.26301-0.03861-0.3539-0.09089-0.14156-0.26864-0.09973-0.40779-0.06677-0.19143 0.04505-0.37642 0.12065-0.56302 0.18338-0.61932 0.20912-1.2346 0.42387-1.8564 0.62254-0.12789 0.04102-0.27347 0.02413-0.41181 0.03539-0.08044 0.0073-0.16006 0.0177-0.25256 0.02815a1.0054 1.0054 0 0 1-0.16328-0.13674c0.38768-0.23325 0.81396-0.35792 1.2443-0.47374a6.3798 6.3798 0 0 1 1.418-0.22682c0.30644-0.01206 0.60726-0.14478 0.91209-0.21556a3.9556 3.9556 0 0 1 0.43192-0.07562c0.10134-0.01206 0.1295 0.04665 0.08526 0.13191-0.03458 0.06677-0.08365 0.12547-0.12306 0.18982a0.49867 0.49867 0 0 0-0.04505 0.46007c0.04665 0.13673 0.0055 0.30403 0.0055 0.45685 0 0.04182 0.0064 0.08284 0.01046 0.12386 0.03701-8e-3 0.07641-0.01288 0.1118-0.02654 0.03701-0.01447 0.07078-0.03941 0.10698-0.0579 0.17775-0.09008 0.25416-0.08123 0.34988 0.0362 0.07561 0.0941 0.06997 0.30162-0.03779 0.39009a1.3472 1.3472 0 0 1-0.38607 0.23004c-0.32253 0.11502-0.51476 0.32896-0.57106 0.67723-0.27105-0.04262-0.5413-0.09652-0.8204-0.15845z" fill="#ffde8c"/>
    <path id="path36" d="m20.338 13.789c-0.17856 0.0925-0.35068 0.2051-0.53889 0.27427-0.58313 0.21717-1.1687 0.43192-1.8049 0.5035 0.0055-0.32736-0.09973-0.61128-0.22038-0.89118a26.959 26.959 0 0 1-0.38205-0.92737c-0.02412-0.06193-0.02332-0.18901 0.01045-0.20832 0.06434-0.0362 0.16086-0.02251 0.24371-0.0177 0.03056 0.0023 0.06193 0.03217 0.09008 0.05308a61.022 61.022 0 0 1 0.46328 0.34344c0.3539 0.26542 0.67964 0.58313 1.1518 0.63702 0.08044 0.0097 0.15764 0.03701 0.23566 0.0563l0.75203 0.17695z" fill="url(#l)"/>
    <path id="path37" d="m20.348 13.787a46.977 46.977 0 0 1-0.76168-0.17454c-0.07802-0.0193-0.15523-0.04665-0.23566-0.0563-0.47213-0.05388-0.79708-0.37159-1.1518-0.63702a61.022 61.022 0 0 0-0.46328-0.34344c-0.02816-0.02011-0.05952-0.05148-0.09008-0.05308-0.08284-0.0048-0.17936-0.0185-0.24371 0.0177-0.03378 0.01931-0.03459 0.14558-0.01044 0.20912 0.12065 0.31127 0.25095 0.61932 0.38205 0.92657 0.12065 0.28071 0.22521 0.56302 0.20751 0.89118a3.6998 3.6998 0 0 1-0.41342 0.07641c0.0563-0.22119-0.0064-0.43192-0.07882-0.63621-0.13512-0.38205-0.28955-0.75606-0.42066-1.1397-0.06918-0.20349-0.10939-0.41824-0.15282-0.62978-0.01044-0.0555 0.01045-0.12065 0.02896-0.17695 0.0563-0.17615 0.12065-0.21395 0.28151-0.13673 0.26542 0.12628 0.5228 0.26542 0.78099 0.40537 0.56463 0.30564 1.1252 0.62174 1.6923 0.92255 0.27266 0.14478 0.55739 0.26542 0.84212 0.40698a1.1743 1.1743 0 0 1-0.19304 0.12869z" fill="#ffde8c"/>
    <path id="path38" d="m11.883 13.681c-0.47213 0.43192-1.0802 0.59117-1.6488 0.82844-0.02251 0.0097-0.04987 0.0056-0.08767 0.0081-0.19947-0.3418-0.46409-0.64503-0.53648-1.0456a0.28955 0.28955 0 0 1 0.00323-0.1311c0.06837 0.1858 0.072386 0.19062 0.26703 0.14558 0.3909-0.08928 0.77134-0.20269 1.0818-0.47616 0.03217-0.02815 0.08203-0.03538 0.12386-0.05148a86.28 86.28 0 0 1 0.79788 0.72227z" fill="#fdd178"/>
    <path id="path39" d="m11.083 12.949c-0.03941 0.02735-0.09008 0.03378-0.12145 0.06193-0.31127 0.27347-0.69091 0.38607-1.0818 0.47615-0.19464 0.04505-0.19867 0.04021-0.25899-0.15362-0.023332-0.08365-0.036996-0.16086-0.060327-0.24371 0.00161-0.28312 0.014481-0.56704 0.037803-0.84936 0.042627-0.0933 0.066766-0.17293 0.10376-0.24612a7.3925 7.3925 0 0 1 0.23647-0.43835c0.04584-0.07722 0.06595-0.19062 0.19464-0.18258 0.13271 0.26945 0.24934 0.54854 0.40376 0.80432 0.16086 0.26623 0.36033 0.50913 0.54613 0.77214z" fill="#fab863"/>
    <path id="path40" d="m19.527 12.136c0.54613 0.41422 1.1285 0.74801 1.7486 1.0384a2.0687 2.0687 0 0 1-0.24773 0.18821c-0.28231-0.08365-0.56302-0.15121-0.82844-0.25899-0.34586-0.14156-0.68045-0.31368-1.0191-0.47535-0.35229-0.1689-0.70217-0.34022-1.0537-0.51154a0.22762 0.22762 0 0 1-0.08446-0.06112c-0.03297-0.04505-0.05469-0.09893-0.08044-0.1488 0.0563-0.02574 0.11019-0.06756 0.16891-0.07319 0.49304-0.04827 0.95392 0.06033 1.3963 0.30242z" fill="#ffde8c"/>
    <path id="path41" d="m16.986 16.471c-0.03297-0.13271-0.04986-0.26623-0.0748-0.39814-0.01929-0.10054 0.02413-0.23325-0.13834-0.28392 0.01929-0.13512 0.04906-0.25899 0.07883-0.38205 0.0362-0.15604-0.0563-0.23888-0.17534-0.30725-0.0064-0.0032-0.0055-0.0177-8e-3 -0.02735 0.15282-0.0023 0.30644-0.0041 0.48178 0.0032a1.0215 1.0215 0 0 0 0.19304-0.02654c0.06112-0.0032 0.12306-0.0081 0.2059-0.0023 0.07722 0 0.13271-0.0097 0.18901-0.0185 0.02251 0 0.04505 0 0.07962 0.01288 0.18178 0.40859 0.28794 0.81397 0.16167 1.2467-0.32736 0.06112-0.65471 0.12225-0.99333 0.18338z" fill="#fab861"/>
    <path id="path42" d="m23.157 11.591a0.74479 0.74479 0 0 1 0.33781 0.43272c0.09813 0.30242 0.21475 0.60243 0.19625 0.92979-0.0089 0.17534-0.13512 0.30081-0.30886 0.2791a5.4911 5.4911 0 0 1-0.61048-0.10858c-0.2228-0.05308-0.26784-0.13512-0.27427-0.43433 0.1496-0.24773 0.30483-0.47937 0.45042-0.71584 0.07561-0.12065 0.13512-0.25014 0.20912-0.38285z" fill="#f0b066"/>
    <path id="path43" d="m16.654 15.07c0.01609 0.01206 0.01609 0.02654 0.02251 0.02976 0.11904 0.06837 0.21153 0.15121 0.17534 0.30725-0.02896 0.12386-0.05952 0.24692-0.09089 0.38285a7.2123 7.2123 0 0 1-0.53728-0.01126c-0.22521-0.01126-0.44961-0.01609-0.6716-0.04262a1.2596 1.2596 0 0 1-0.40536-0.10617c-0.19223-0.09652-0.19867-0.24532-0.06837-0.36114 0.10134-0.09009 0.20349-0.17936 0.30564-0.2791 0.41986 0.0193 0.8381 0.04907 1.27 0.08044z" fill="#ffd761"/>
    <path id="path44" d="m22.661 11.551c-0.11823-0.04505-0.2236-0.11743-0.33781-0.14076-0.15202-0.03217-0.31127-0.02815-0.46811-0.03539-0.08365-0.0048-0.1673-0.0016-0.25095-0.0016l-0.0041-0.05067c0.0933-0.01366 0.1866-0.03217 0.28151-0.03941 0.16569-0.01367 0.33298-0.01689 0.49867-0.03217 0.13513-0.01366 0.20832-0.0925 0.21154-0.23164 0.0064-0.24934-0.14719-0.43594-0.24692-0.64426-0.03378-0.06998-0.04021-0.15282-0.05871-0.24129 0.22656-0.20243 0.49336-0.43994 0.73001-0.63049 0.02011 0.13995-0.0029 0.32083 0.0043 0.46239 0.02816 0.55819-0.10456 1.081-0.35953 1.5845zm-4.6682 4.7374c0.1126-0.43433 0.0064-0.8389-0.16488-1.2467 0.02412-0.02011 0.04827-0.02816 0.08847-0.02735 0.03296-0.0026 0.06515-0.01132 0.09491-0.02574l0.19866-0.0177c0.16247 0.17454 0.3169 0.34586 0.45766 0.52844 0.06676 0.08606 0.11743 0.18821 0.15604 0.28955 0.05067 0.13352 0 0.25979-0.15282 0.3169-0.21475 0.07883-0.44237 0.12386-0.67804 0.18258z" fill="#fdd178"/>
    <path id="path45" d="m14.124 14.725c-0.02654 0.03378-0.05952 0.07641-0.10134 0.08848a0.59841 0.59841 0 0 0-0.35149 0.27266c-0.04262 0.06756-0.10456 0.12306-0.15362 0.18741-0.08044 0.10376-0.18017 0.11502-0.2992 0.08606-0.07239-0.0177-0.1488-0.01367-0.24371-0.02172l0.02895 0.14478a0.7641 0.7641 0 0 1-0.43835-0.31287c-0.08044-0.12467-0.06677-0.23727 0.02574-0.34425 0.12869-0.1496 0.28151-0.2228 0.48259-0.15523 0.11019 0.03701 0.22199 0.06837 0.33379 0.09652 0.14236 0.0362 0.25416-0.0081 0.32977-0.1496 0.12628 0.02655 0.25175 0.06435 0.38687 0.10778z" fill="#ffde8c"/>
    <path id="path46" d="m15.457 14.585c-0.01126-0.20671-0.04423-0.42066 0.15925-0.55498a0.92496 0.92496 0 0 1 0.75043-0.12869c0.1689 0.04182 0.30805 0.41664 0.2614 0.63139-8e-3 0.03861-0.01609 0.07641-0.02251 0.11502a0.16891 0.16891 0 0 1-0.111 0.0055c-0.16649-0.01287-0.3169-0.01287-0.46731-0.01367-0.04262-0.0016-0.08446-0.0023-0.14156-0.01528a1.5419 1.5419 0 0 0-0.22521-0.01528c-0.06434-0.0064-0.12869-0.01287-0.20349-0.02413z" fill="#ffd761"/>
    <path id="path47" d="m21.543 13.542c0.0032 0.09331 0.04021 0.148 0.13673 0.19062 0.35953 0.15845 0.71182 0.3354 1.0713 0.49546 0.22923 0.10295 0.4665 0.21314 0.71664 0.01609-0.03458 0.06677-0.08044 0.13352-0.13512 0.20671-0.0563 0.02815-0.1126 0.04182-0.15041 0.07562-0.19062 0.1689-0.20108 0.16247-0.42629 0.02977-0.30323-0.17856-0.61691-0.33862-0.92335-0.51154a2.4234 2.4234 0 0 1-0.32977-0.21556c-0.04826-0.03941-0.06756-0.11341-0.10054-0.18338 0.04423-0.04021 0.08847-0.07078 0.14156-0.10376z" fill="#fdd178"/>
    <path id="path48" d="m10.132 11.362c-0.12708 0.0032-0.14719 0.11662-0.19304 0.19304a7.3925 7.3925 0 0 0-0.23647 0.43916c-0.036996 0.07239-0.061125 0.15282-0.10134 0.23245 0.032172-0.32173 0.069985-0.64506 0.12065-0.96759 0.04343-0.28151 0.09974-0.56141 0.18178-0.84212z" fill="#fdd47f"/>
    <path id="path49" d="m16.037 14.647a3.5181 3.5181 0 0 1 0.44639 0.0041 3.5173 3.5173 0 0 1-0.44639-0.0041zm-0.36757-0.02976a0.75606 0.75606 0 0 1 0.20349 0.0048 0.77295 0.77295 0 0 1-0.20349-0.0048z" fill="#ffde8c"/>
    <path id="path50" d="m17.33 15.045a0.6161 0.6161 0 0 1-0.16569 0.03056 0.6338 0.6338 0 0 1 0.16569-0.03056zm0.39894-0.02412a0.57508 0.57508 0 0 1-0.1673 0.02574 0.57428 0.57428 0 0 1 0.1673-0.02495zm0.27266-0.0362a0.1496 0.1496 0 0 1-0.07562 0.03056 0.14478 0.14478 0 0 1 0.07562-0.03056z" fill="#f5d182"/>
    <path id="path51" d="m11.017 9.3373c0.40778-0.50109 0.91209-0.86946 1.4687-1.1719a8.3737 8.3737 0 0 1 2.5207-0.87027c0.31771-0.057911 0.64265-0.082844 0.96518-0.10376 0.33379-0.021717 0.66919-0.038608 1.0038-0.027346 1.0175 0.034586 2.0212 0.17132 2.9736 0.55015 0.38446 0.15282 0.74399 0.36998 1.1124 0.56141 0.06112 0.032172 0.10858 0.088473 0.17212 0.13673a0.20188 0.20188 0 0 1-0.05067 0.11582c-0.04585 0.011262-0.07078 0.016086-0.0941 0.024129-0.42307 0.13673-0.60967 0.069975-0.85499-0.30242a0.30966 0.30966 0 0 0-0.12226-0.10858c-0.16891-0.078018-0.34103-0.14558-0.52441-0.21958l-0.29196-0.061932c-0.13432-0.040216-0.26945-0.080432-0.41824-0.1303-0.03379-0.022521-0.05469-0.034586-0.0748-0.04665-0.08284-0.010456-0.16488-0.020107-0.26462-0.040216a0.411 0.411 0 0 0-0.07158-0.020107 1.4622 1.4622 0 0 1-0.19625-0.019303 1.5387 1.5387 0 0 0-0.07802-0.042629c-0.02251-8.043e-4 -0.04423-0.00161-0.08204-0.00966-0.03217-0.00402-0.04987 0-0.06756 0.00321a10.226 10.226 0 0 1-0.38929-0.065954 0.59439 0.59439 0 0 0-0.07239-0.0185c-0.15282 0.00804-0.30484 0.017694-0.47937 0.026542-0.03701 0.010456-0.05148 0.019303-0.08044 0.028956-0.17936 0.00804-0.34746 0.033781-0.51154 0.020107-0.30002-0.027336-0.59359-0.11742-0.90084-0.052269-0.44559 0.092496-0.89601 0.15684-1.3376 0.2614a5.401 5.401 0 0 0-1.5234 0.62254c-0.22843 0.13593-0.43111 0.31529-0.6515 0.4665-0.10697 0.074001-0.24371 0.10939-0.33862 0.19464-0.33862 0.30403-0.66436 0.62174-0.99735 0.93059-0.02412 0.02251-0.07239 0.02091-0.10858 0.03057 0.12145-0.21716 0.24371-0.43433 0.36596-0.66195z" fill="#fdf0c5"/>
    <path id="path52" d="m19.599 7.9233c0.17132 0.072389 0.34425 0.13995 0.51235 0.21797 0.04826 0.021717 0.09249 0.064344 0.12226 0.10858 0.24532 0.3724 0.43192 0.43916 0.85498 0.30162 0.02412-0.00807 0.04827-0.012069 0.08526-0.018498-0.31207 0.26382-0.63782 0.52602-0.95874 0.79305-0.20188 0.1681-0.39411 0.34827-0.59761 0.51557-0.30725 0.25416-0.61932 0.50189-0.9314 0.75123-0.06596 0.05308-0.13593 0.10295-0.22119 0.16328a43.234 43.234 0 0 0-0.51476 0.3724l-0.03217 0.0016a0.21153 0.21153 0 0 0-0.06033 0.05871h-0.02172c-0.19786 0.08044-0.38446 0.17212-0.57991 0.23003-0.06837 0.02011-0.19464-0.0185-0.23486-0.07399-0.0563-0.07722-0.01609-0.17695 0.06434-0.25497 0.35631-0.33861 0.69975-0.69009 1.0609-1.0231 0.40538-0.3732 0.82603-0.73193 1.2403-1.0955 0.24291-0.21235 0.48822-0.42388 0.77215-0.6708-0.10215-0.032212-0.16569-0.053122-0.24371-0.083689-0.0563-0.040215-0.10536-0.065958-0.14317-0.10295-0.06112-0.05952-0.11582-0.12628-0.17293-0.19062z" fill="#ffe69e"/>
    <path id="path53" d="m17.961 11.128a10.955 10.955 0 0 1 0.49867-0.36436 7.1319 7.1319 0 0 1-0.36516 0.30564c-0.03458 0.02816-0.08123 0.03861-0.13352 0.05871zm-0.0933 0.06033c0.0041-0.0185 0.01929-0.03701 0.04343-0.05711a0.11904 0.11904 0 0 1-0.04343 0.0563z" fill="#fdd178"/>
    <path id="path54" d="m19.837 11.163c0.0032 0.0064-0.0023 0.01447-0.0177 0.02412-0.0032-0.0073 0.0023-0.0161 0.01689-0.02412z" fill="#fab861"/>
    <path id="path55" d="m23.811 14.198c-0.07078 0.10617-0.14076 0.20108-0.21234 0.30725-0.02976 0.02895-0.06434 0.04262-0.08606 0.06677-0.26945 0.30403-0.51878 0.62898-0.81075 0.90888-0.32173 0.31046-0.65793 0.61128-1.0826 0.8027 0.04827-0.05308 0.10698-0.10456 0.16569-0.15684 0.40537-0.35068 0.82201-0.6901 1.2113-1.0577 0.18017-0.17051 0.30805-0.39653 0.46248-0.59519a27.548 27.548 0 0 1 0.49787-0.62334c-0.04182 0.10939-0.0925 0.2236-0.14478 0.34746z" fill="#f5d182"/>
    <path id="path56" d="m19.464 22.257c0 0.0016-0.0016-0.0016 0 0z" fill="#fdae3f"/>
    <path id="path57" d="m10.643 10.002c0.04423-0.01288 0.09169-0.01126 0.11662-0.03379 0.33299-0.30886 0.65873-0.62737 0.99735-0.93059 0.09491-0.085254 0.23164-0.12065 0.33942-0.19464 0.21958-0.15121 0.42226-0.33057 0.65069-0.4665a5.405 5.405 0 0 1 1.5234-0.62254c0.44157-0.10456 0.89279-0.16891 1.3368-0.2614 0.30805-0.064346 0.60162 0.024934 0.90083 0.05228 0.16488 0.013673 0.33299-0.012065 0.51235-0.012065 0.01367 0.01287 0.01367 0.0185 0.01367 0.024129-0.04022 0.15362-0.09008 0.30564-0.11904 0.46248-0.09088 0.50511-0.17454 1.0118-0.2606 1.5169-0.0177 0.10456-0.03217 0.20912-0.06193 0.32655-0.24612 0.05147-0.43916-0.04827-0.62978-0.15926-0.19062-0.10939-0.39009-0.13995-0.59117-0.03137-0.10215 0.0555-0.20027 0.12065-0.29358 0.18901-0.36757 0.26945-0.69493 0.2043-1.0054-0.04021-0.24129-0.19062-0.3539-0.45042 0.0097-0.68528 0.04827-0.031375 0.07562-0.095708 0.1126-0.15523-0.0708-0.086066-0.14238-0.16087-0.21477-0.24613-0.14799-0.094104-0.28633-0.19947-0.44237-0.25577-0.3346-0.12145-0.62254 0.022524-0.8952 0.2051-0.18821 0.12628-0.22762 0.29197-0.06112 0.43916 0.23647 0.20912 0.5043 0.38205 0.75847 0.57106 0.12628 0.09813 0.25175 0.19706 0.39251 0.30886l0.05389 0.06033c0.10456 0.11502 0.09008 0.18982-0.06273 0.19143a0.82844 0.82844 0 0 1-0.39411-0.11422c-0.35711-0.19947-0.70458-0.41583-1.0536-0.62898-0.30403-0.18499-0.57911-0.11662-0.8397 0.086061-0.19947 0.15523-0.39411 0.3169-0.59117 0.47455-0.08687 0.06997-0.17293 0.0764-0.25336-0.01206a0.51959 0.51959 0 0 1 0.05148-0.05791z" fill="url(#m)"/>
    <path id="path58" d="m13.34 9.6807c-0.25416-0.17534-0.522-0.34907-0.75847-0.55739-0.16649-0.14719-0.12708-0.31288 0.061124-0.43916 0.27266-0.18258 0.56061-0.32655 0.8952-0.2051 0.15604 0.056301 0.29438 0.16167 0.43111 0.25497-0.11502-0.019305-0.21877-0.056301-0.32575-0.07721-0.09812-0.019305-0.2051 0.00807-0.19867 0.12065 0.0041 0.072387 0.08284 0.19143 0.13995 0.19866 0.20108 0.026541 0.40698 0.013674 0.61128 0.016086-0.0378 0.048258-0.06435 0.1126-0.11341 0.14397-0.36436 0.23566-0.25014 0.49465-0.0089 0.68528 0.30966 0.24451 0.63702 0.30966 1.0046 0.04021a2.5545 2.5545 0 0 1 0.29358-0.18901c0.20108-0.10858 0.40055-0.078018 0.59117 0.03217 0.19142 0.11019 0.38366 0.20992 0.62978 0.17132 0.01044 0.30966-0.15362 0.49465-0.40216 0.45524-0.08606-0.01366-0.16891-0.06113-0.24934-0.10215-0.16247-0.08284-0.32736-0.04343-0.46892 0.02412-0.41663 0.20108-0.78582 0.09491-1.1461-0.13673-0.25818-0.1673-0.51557-0.3362-0.77858-0.49706-0.07078-0.042627-0.17856-0.1303-0.20751 0.061932zm6.2471-1.759c0.06918 0.065954 0.12387 0.13271 0.18499 0.19304 0.0378 0.036198 0.08606 0.061125 0.1311 0.10215-0.10054 0.067563-0.21314 0.1118-0.30403 0.18338-0.37722 0.2984-0.75284 0.59761-1.1172 0.91209a3.7023 3.7023 0 0 0-0.43835 0.47615 1.3512 1.3512 0 0 1-0.57267 0.41422c-0.11662 0.04505-0.22923-0.0933-0.18419-0.23486 0.04505-0.13834 0.10134-0.2791 0.18097-0.39974 0.185-0.27749 0.36194-0.56704 0.58876-0.80753 0.24934-0.26301 0.54774-0.47696 0.89681-0.6145 0.12789-0.05067 0.22682-0.17454 0.34022-0.27588 0.09572 0.00966 0.18901 0.02976 0.29357 0.051476zm-8.9995 2.1491c0.08526 0.07802 0.17132 0.07158 0.25819 0.0016 0.19706-0.15765 0.3917-0.31931 0.59117-0.47455 0.25979-0.20269 0.53567-0.27105 0.8389-0.086061 0.34988 0.21314 0.69734 0.4295 1.0545 0.62897 0.11743 0.06596 0.26301 0.11582 0.39411 0.11421 0.15282-0.0023 0.1673-0.07641 0.06273-0.19223a0.60726 0.60726 0 0 1-0.04505-0.05469c0.26945 0.06998 0.49304 0.23084 0.67723 0.44237 0.08847 0.10215 0.0563 0.19384-0.08446 0.21234-0.1673 0.02251-0.33942 0.0064-0.50913 0-0.06434-0.0016-0.12869-0.02412-0.19464-0.03217-0.29598-0.03539-0.47936-0.20108-0.63862-0.45364-0.22923-0.36194-0.60243-0.52039-1.0255-0.50672-0.23164 0.0081-0.38366 0.18821-0.52119 0.36194-0.16569 0.21073-0.37079 0.34425-0.64988 0.33379-0.19786-0.0073-0.25818-0.08686-0.20832-0.29518zm5.8096 3.2165c-0.03217-0.3547-0.06515-0.69573-0.0925-1.0376-0.0048-0.05389 0.01528-0.11019 0.02412-0.16569l0.04182-0.01126c0.02976 0.04102 0.07399 0.07802 0.08526 0.12387 0.10456 0.41422 0.21234 0.82844 0.30001 1.2467 0.0362 0.17132 0.03056 0.35229 0.03217 0.52844 0 0.06838-0.03298 0.13673-0.07641 0.20591-0.1681-0.27588-0.23647-0.5783-0.31368-0.89118z" fill="#ffde8c"/>
    <path id="path59" d="m16.129 11.133c0.17132 0.0032 0.42629 0.23325 0.43916 0.38929a0.1311 0.1311 0 0 1-0.04827 0.10134c-0.09732 0.06193-0.19786 0.12226-0.30484 0.16488-0.04021 0.0161-0.12065 0-0.15041-0.03217a4.1261 4.1261 0 0 1-0.28714-0.36918c-0.04665-0.06515-0.03701-0.12065 0.05469-0.14719 0.09652-0.02895 0.18982-0.06997 0.29679-0.10697z" fill="#fdf0c5"/>
    <path id="path60" d="m17.853 8.6568c-0.01689 0.00242-0.02252 0.00484-0.02735 0.00404-0.10456-0.01207-0.21716-0.00727-0.30966-0.046653-0.03539-0.014481-0.04987-0.13915-0.03217-0.20269 0.03779-0.13754 0.17132-0.17534 0.29036-0.17695 0.12306-0.00161 0.24853 0.033786 0.36998 0.065151a0.16649 0.16649 0 0 1 0.10134 0.094911c8e-3 0.024129-0.03779 0.08043-0.07239 0.10054-0.09893 0.058713-0.2043 0.10778-0.32012 0.16086z" fill="#fdd761"/>
    <path id="path61" d="m18.194 7.5702c0.0185 8.043e-4 0.03941 0.012064 0.06273 0.032173-0.0185-0.0024-0.03941-0.012065-0.06273-0.032173zm0.27347 0.060323c0.01609-0.00482 0.03458-8.043e-4 0.05791 0.010457-0.01447 0.00482-0.03538 0.00161-0.05791-0.010457zm-0.42146-0.06917c0.01367-0.010457 0.03137-0.014477 0.05308-0.010457a0.065954 0.065954 0 0 1-0.05308 0.010457zm0.75847 0.1311a0.11743 0.11743 0 0 1 0.06111 0.03539c-0.0185-0.00161-0.03861-0.013673-0.06111-0.03539zm-1.7606-0.13673c-0.0097-0.00482-0.0097-0.00966-0.0097-0.022521a0.11984 0.11984 0 0 1 0.05388-0.036194 0.12628 0.12628 0 0 1-0.04423 0.05791zm0.53889-0.077214c0.01529-0.00563 0.03378-0.00161 0.0563 0.00966-0.01447 0.00482-0.03457 0.00161-0.0563-0.00966z" fill="#ffe6a1"/>
    <path id="path62" d="m21.09 14.923c0.2598 0.10697 0.3909 0.2799 0.34103 0.56222-0.0032 0.02011 0.0064 0.05067-0.0041 0.05871-0.11904 0.09652-0.23004 0.21153-0.36596 0.27186-0.06677 0.03056-0.17936-0.04182-0.27105-0.06837l-0.0041-0.06033c0.06112-0.03378 0.12306-0.06917 0.1858-0.09974 0.06273-0.03137 0.13673-0.04505 0.18901-0.08687 0.09893-0.07883 0.11502-0.18097 0.01609-0.27347-0.1118-0.10215-0.23647-0.19062-0.34425-0.29599-0.04182-0.04102-0.0563-0.1118-0.08365-0.16891 0.06756 0.0081 0.14156 0.0023 0.20108 0.02895 0.05147 0.02251 0.08847 0.08124 0.13995 0.13191z" fill="#ffde8c"/>
    <path id="path63" d="m14.195 8.981c-0.20349 0.00888-0.4102 0.021717-0.61128-0.00484-0.0563-0.00797-0.13512-0.12628-0.13915-0.19786-0.0064-0.1126 0.09974-0.14075 0.19867-0.12065 0.10697 0.02091 0.21073 0.057108 0.32736 0.087665a2.2738 2.2738 0 0 1 0.22521 0.23566z" fill="#fdd761"/>
    <path id="path64" d="m12.021 20.807c-0.25738-0.71101-0.06273-1.4293 0.43433-1.8105 0.74801-0.57348 2.2617-0.21716 3.161-0.40859 1.6038-0.34103 3.6355-0.02735 5.1573-0.63702 1.1341-0.45444 3.0548-2.0212 3.0548-2.0212l0.68206-1.0343s0.08847 1.3794-0.08284 2.0212c-0.32092 1.2016-0.83686 2.1536-1.6436 3.1003-0.65793 0.77214-1.6943 1.6774-2.6265 2.0763-1.2523 0.53487-2.5553 0.77214-3.9138 0.6893-1.4671-0.08848-3.7208-0.59358-4.2226-1.9754z" fill="url(#n)" stroke-width="0"/>
    
    <path id="path66" d="m9.136 13.441s-0.29599-0.46972-0.26221 2.2722c0.00565 0.49626 0.20993 1.4719 0.20993 1.4719s0.39814 1.7051 0.95794 2.08c0.68608 0.45926 1.6537 0.3161 2.2899-0.20993 0.41583-0.34344 0.38285-1.0553 0.30403-1.5893-0.05388-0.36516-0.75042-0.91853-0.99896-1.1912-0.36435-0.39975-0.78018-0.61289-1.1156-0.97563-0.52441-0.56704-1.3303-2.3309-1.385-1.858z" fill="url(#o)" stroke-width="0"/>
<path id="path21-5" d="m19.833 11.161c0.33379-0.28714 0.65587-0.60666 0.98242-0.90104 2.1451-1.9381 3.2713-3.0549 3.3713-3.1672 0.01853-0.020648 0.03993-0.038526 0.06355-0.053085 0.14197 0.16542 0.27877 0.33521 0.4102 0.50913 0.07802 0.10295 0.09088 0.2043-0.01126 0.31127-0.14639 0.15282-0.27668 0.32092-0.42146 0.47454-0.07883 0.083649-0.18017 0.14478-0.2606 0.22762-0.16086 0.16167-0.31368 0.32977-0.46972 0.50672-0.12065 0.11421-0.2429 0.21717-0.36194 0.32173-0.05067 0.04263-0.09652 0.09088-0.15926 0.14478-0.24371 0.20188-0.47133 0.39411-0.7078 0.59117-0.12869 0.11502-0.2429 0.23084-0.36757 0.33459-0.3542 0.29394-0.71025 0.58565-1.0681 0.87509-0.10778 0.08847-0.21153 0.19706-0.33701 0.24934-0.20188 0.08203-0.41824 0.14478-0.6346 0.17695-0.08848 0.01206-0.19223-0.08044-0.28955-0.12386 0.04021-0.08687 0.07802-0.17454 0.12065-0.25979 0.03298-0.06434 0.07399-0.12548 0.111-0.18821l0.0064-0.0032c0.01528-0.0089 0.02091-0.01689 0.02412-0.02654z" fill="url(#linearGradient69)"/></svg>
