<?xml version="1.0" encoding="UTF-8" standalone="no"?>
<!-- Created with Inkscape (http://www.inkscape.org/) -->

<svg
   width="256mm"
   height="256mm"
   viewBox="0 0 256 256"
   version="1.1"
   id="svg1"
   xml:space="preserve"
   xmlns="http://www.w3.org/2000/svg"
   xmlns:svg="http://www.w3.org/2000/svg"><defs
     id="defs1" /><g
     id="layer1"><g
       id="g8"
       transform="matrix(1.6111943,0.23089482,-0.21849115,1.5246403,-3.3129911,-127.85852)"><path
         style="fill:#29a400;fill-opacity:1;stroke:none;stroke-width:0.565;stroke-dasharray:none;stroke-opacity:1"
         d="m 73.818749,113.50625 c -33.494422,38.21258 6.344119,63.48553 -10.054166,103.1875 -4.359834,10.55562 10.102983,9.58858 18.520833,8.46666 22.500494,-2.99884 51.153034,-20.53166 60.060414,-49.21249 9.1687,-29.52227 2.88586,-41.74719 -1.58749,-54.23959 -28.08947,15.81058 -50.054174,-27.466044 -66.939591,-8.20208 z"
         id="path1" /><path
         style="fill:#e14125;fill-opacity:1;stroke:none;stroke-width:0.506249;stroke-dasharray:none;stroke-opacity:1"
         d="m 76.601093,111.60582 c -30.895202,23.61921 7.444621,56.3937 -1.617276,96.53827 -2.311942,10.242 3.97459,10.22453 11.25437,9.18299 19.458523,-2.78398 47.492093,-15.07737 56.107643,-41.37916 8.61557,-26.30181 2.86736,-46.28074 -1.58749,-54.23959 -27.45352,15.67488 -45.691499,-24.219468 -64.157247,-10.10251 z"
         id="path1-0" /><path
         style="fill:#f7913d;fill-opacity:1;stroke:none;stroke-width:0.451744;stroke-dasharray:none;stroke-opacity:1"
         d="m 76.270364,113.40786 c -22.103533,34.67547 19.245023,57.05674 9.556496,87.55831 -2.891673,9.10361 5.309034,8.69902 10.979255,7.48092 16.733385,-3.59474 39.454795,-14.46467 46.948285,-38.54374 7.49351,-24.07909 0.8786,-40.90876 -2.99606,-48.19502 -24.90668,18.96957 -49.82441,-27.493803 -64.487976,-8.30047 z"
         id="path1-0-6" /><path
         style="fill:#faee50;fill-opacity:1;stroke:none;stroke-width:0.564999;stroke-dasharray:none;stroke-opacity:1"
         d="m 83.937181,108.46447 c -15.346895,0.19563 -16.013968,21.0288 -13.242402,34.70172 25.741994,-21.18728 48.791821,32.17963 74.770921,-9.03106 -1.74231,-6.76222 -3.26661,-10.06534 -4.70736,-12.4268 -24.17054,10.75028 -44.359246,-15.64992 -56.821159,-13.24386 z"
         id="path4" /><path
         style="fill:#fbc214;fill-opacity:1;stroke:none;stroke-width:0.564999;stroke-dasharray:none;stroke-opacity:1"
         d="m 70.694779,143.16619 c 3.675485,13.58536 7.69217,19.03411 11.55682,28.10844 13.069399,-27.50619 40.258551,5.22924 50.939461,-26.65396 -20.66936,19.96815 -37.898879,-23.70435 -62.496281,-1.45448 z"
         id="path3" /><path
         style="fill:#e0e0e0;fill-opacity:0.388339;stroke:#787878;stroke-width:0.465;stroke-dasharray:none;stroke-opacity:0.749952"
         d="m 99.35104,160.59679 12.17083,-66.00825 27.64896,-13.626041 2.64583,5.159375 -25.2677,12.435416 -11.32378,61.11875 c -1.89663,-0.39312 -4.11926,1.06032 -5.87414,0.92075 z"
         id="path5" /><path
         style="fill:#ffa424;fill-opacity:1;stroke:none;stroke-width:0.564999;stroke-dasharray:none;stroke-opacity:1"
         d="m 82.251599,171.27463 c 5.38708,10.53997 6.411245,21.13826 3.072495,31.79487 -0.528608,4.14438 1.743742,6.22777 6.817051,6.25016 55.893365,-10.7817 58.332325,-56.15821 53.324555,-75.18453 -18.34501,3.87321 -8.12828,27.49666 -34.73758,25.21018 -10.859401,-0.93312 -22.801014,-2.14282 -28.476521,11.92932 z"
         id="path2" /><path
         style="fill:#3cb201;fill-opacity:1;stroke:none;stroke-width:0.564999;stroke-dasharray:none;stroke-opacity:1"
         d="m 115.74856,119.73744 c 9.28918,-25.528141 32.85845,-13.95028 33.53594,-12.11139 -10.39937,17.28404 -20.8583,17.09138 -33.53594,12.11139 z"
         id="path6" /><path
         style="fill:#79c800;fill-opacity:1;stroke:none;stroke-width:0.564999;stroke-linejoin:round;stroke-dasharray:none;stroke-opacity:1"
         d="m 115.74856,119.73744 33.53594,-12.11139 c -6.1544,-4.26152 -12.97395,-5.24247 -20.45863,-2.94286 -8.71749,3.48728 -10.31241,9.13464 -13.07731,15.05425 z"
         id="path7" /><path
         style="fill:#3cb201;fill-opacity:1;stroke:none;stroke-width:0.564999;stroke-dasharray:none;stroke-opacity:1"
         d="M 105.04471,114.72655 C 115.61375,89.701152 90.465808,82.142146 88.717881,83.028295 84.573248,102.76928 92.36706,109.74659 105.04471,114.72655 Z"
         id="path6-3" /><path
         style="fill:#79c800;fill-opacity:1;stroke:none;stroke-width:0.564999;stroke-linejoin:round;stroke-dasharray:none;stroke-opacity:1"
         d="M 105.04471,114.72655 88.717881,83.028295 c 7.40943,1.066567 13.073389,4.989329 16.991879,11.76828 4.01336,8.488135 1.3382,13.711175 -0.66505,19.929975 z"
         id="path7-2" /><ellipse
         style="fill:#ffffff;fill-opacity:1;stroke:none;stroke-width:0.759991;stroke-linejoin:round;stroke-dasharray:none;stroke-opacity:1"
         id="path8"
         cx="102.73745"
         cy="171.73109"
         rx="3.5765018"
         ry="3.5121145" /><ellipse
         style="fill:#ffffff;fill-opacity:1;stroke:none;stroke-width:0.497976;stroke-linejoin:round;stroke-dasharray:none;stroke-opacity:1"
         id="path8-7"
         cx="107.4034"
         cy="163.25539"
         rx="2.2656877"
         ry="2.3802736" /><ellipse
         style="fill:#ffffff;fill-opacity:1;stroke:none;stroke-width:0.269229;stroke-linejoin:round;stroke-dasharray:none;stroke-opacity:1"
         id="path8-7-2"
         cx="92.388161"
         cy="154.46341"
         rx="1.210757"
         ry="1.3019569" /><ellipse
         style="fill:#ffffff;fill-opacity:1;stroke:none;stroke-width:0.406323;stroke-linejoin:round;stroke-dasharray:none;stroke-opacity:1"
         id="path8-7-2-6"
         cx="96.399094"
         cy="150.17043"
         rx="1.8555561"
         ry="1.9349923" /><ellipse
         style="fill:#ffffff;fill-opacity:1;stroke:none;stroke-width:0.332668;stroke-linejoin:round;stroke-dasharray:none;stroke-opacity:1"
         id="path8-7-2-1"
         cx="111.966"
         cy="155.89998"
         rx="1.5064428"
         ry="1.5976382" /><ellipse
         style="fill:#ffffff;fill-opacity:1;stroke:none;stroke-width:0.664156;stroke-linejoin:round;stroke-dasharray:none;stroke-opacity:1"
         id="path8-7-3"
         cx="93.042519"
         cy="161.83891"
         rx="3.0244963"
         ry="3.1717446" /></g></g></svg>
